# xmcd CD database file
#
# Track frame offsets:
#	150
#	16590
#	32489
#	49312
#	66919
#	85211
#	109202
#	128547
#	146296
#	165599
#	184406
#	215615
#
# Disc length: 3184 seconds
#
# Revision: 2
# Processed by: cddbd v1.5.2PL0 Copyright (c) Steve Scherf et al.
# Submitted via: CDex 1.51
#
DISCID=9f0c6e0c
DTITLE=Brings - Poppe,Kaate,Danze
DYEAR=2004
DGENRE=
TTITLE0=Poppe, Kaate, Danze
TTITLE1=Lang vorbei
TTITLE2=So lang mer noch am L‰‰ve sin
TTITLE3=Et letzte Bier
TTITLE4=Loos dich falle
TTITLE5=So allein
TTITLE6=A Beautifull Day
TTITLE7=Ne helle St‰n
TTITLE8=Stell dich widder hin
TTITLE9=Han ich dir jesaht
TTITLE10=Schenk dir mi H‰tz
TTITLE11=Daten-CD
EXTD=YEAR: 2004
EXTT0=
EXTT1=
EXTT2=
EXTT3=
EXTT4=
EXTT5=
EXTT6=
EXTT7=
EXTT8=
EXTT9=
EXTT10=
EXTT11=
PLAYORDER=
